<svg width="241" height="101" viewBox="0 0 241 101" fill="none" xmlns="http://www.w3.org/2000/svg">
<rect x="0.267166" y="0.496002" width="240" height="100" rx="50" fill="#FFEB00"/>
<path fill-rule="evenodd" clip-rule="evenodd" d="M107.298 34.3558V56.9969C107.851 57.0679 109.234 57.21 110.553 57.21C117.756 57.21 120.524 52.1536 120.524 44.1937C120.524 37.1976 118.655 32.9751 112.91 32.9751C111.032 32.969 108.956 33.525 107.295 34.3558M107.295 64.061V78.146H97.1849V25.911H104.317L105.559 29.2346C107.708 27.0879 110.961 24.8021 116.224 24.8021C126.13 24.8021 130.834 32.2091 130.766 44.1906C130.766 56.7251 123.495 64.756 113.108 64.756C111.106 64.7591 109.58 64.6201 107.295 64.0641M156.944 53.9976V47.0725H152.308C147.112 47.0725 144.481 48.9443 144.481 52.6818C144.481 55.5204 145.933 56.9042 148.913 56.9042C151.681 56.9104 155.208 55.5204 156.944 54.0007M151.19 40.6292H156.941V39.3844C156.941 35.23 154.587 33.2902 150.501 33.2902C147.384 33.2902 143.372 34.1952 140.113 35.7829L137.343 28.9998C140.944 26.5072 146.485 24.7743 151.397 24.7743C161.096 24.7743 166.359 29.8987 166.359 39.6624V63.6934H159.224L158.186 60.5027C154.102 63.4772 150.359 64.7282 146.967 64.7282C139.56 64.7282 135.403 60.2957 135.403 52.8208C135.403 44.8516 140.944 40.6292 151.19 40.6292ZM196.524 60.4594C192.991 69.8803 188.768 76.7313 182.603 80.5429L176.373 74.7915C179.974 71.678 182.535 68.6294 184.747 64.549L171.31 27.9157L181.355 25.2191L189.939 54.9243L198.458 25.077L208.364 27.8477L196.524 60.4594Z" fill="black"/>
<path fill-rule="evenodd" clip-rule="evenodd" d="M57.889 24.4533C43.4148 24.4533 31.6834 33.7198 31.6834 45.1546C31.6834 52.0118 35.9151 58.0875 42.4263 61.8558L39.3406 73.3771C39.0472 74.486 40.2827 75.3632 41.2279 74.7207L54.6086 65.686C55.6805 65.791 56.7739 65.8558 57.889 65.8558C72.357 65.8558 84.0914 56.5894 84.0914 45.1546C84.0852 33.7229 72.3539 24.4533 57.889 24.4533Z" fill="black"/>
</svg>
