<svg width="271" height="101" viewBox="0 0 271 101" fill="none" xmlns="http://www.w3.org/2000/svg">
<rect x="0.267166" y="0.586281" width="270" height="100" rx="50" fill="#0064FF"/>
<path d="M89.2832 47.5781C87.8042 34.7976 77.1051 25.3636 64.6667 25.2408C64.5747 25.2399 64.4822 25.2414 64.3899 25.2415C63.4307 25.2427 62.4619 25.2973 61.4861 25.412C57.9568 25.8271 54.6858 26.9637 51.7986 28.6566L51.7976 28.6549C51.7337 28.6923 51.6714 28.7311 51.6079 28.7687C51.5526 28.8016 51.4978 28.8347 51.4428 28.8678C37.1122 37.4739 32 57.3383 32 69.4311L43.5409 62.7144C47.6079 70.527 55.4109 75.674 64.1132 75.7697C64.2053 75.7706 64.2978 75.7692 64.3901 75.7691C65.3493 75.7678 66.3181 75.7133 67.2938 75.5986C81.042 73.9819 90.887 61.4367 89.2832 47.5781Z" fill="white"/>
<path d="M216.248 60.2283C217.942 63.6177 220.964 65.3779 224.964 65.3671C228.895 65.3565 230.995 63.442 230.989 61.1775C230.982 58.419 226.91 57.7933 222.063 56.8163C215.674 55.4901 208.579 53.529 208.558 45.4656C208.541 39.0289 214.703 33.4239 224.037 33.4701C231.455 33.45 236.105 36.052 239.551 40.4817L231.508 45.1906C229.957 42.6493 227.567 41.1695 224.058 41.179C220.267 41.1892 218.447 42.7506 218.453 44.8725C218.459 47.2774 221.549 47.9057 227.097 49.0938C233.416 50.35 240.862 52.522 240.884 60.727C240.9 66.6687 235.654 73.4017 224.634 73.3613C216.328 73.3837 210.835 70.4963 207.655 65.259L207.642 65.2358L216.248 60.2283Z" fill="white"/>
<path d="M181.62 60.2283C183.314 63.6177 186.337 65.3779 190.336 65.3671C194.267 65.3565 196.368 63.442 196.362 61.1775C196.354 58.419 192.282 57.7933 187.436 56.8163C181.047 55.4901 173.952 53.529 173.931 45.4656C173.914 39.0289 180.075 33.4239 189.41 33.4701C196.828 33.45 201.478 36.052 204.923 40.4817L196.881 45.1906C195.33 42.6493 192.94 41.1695 189.43 41.179C185.64 41.1892 183.82 42.7506 183.825 44.8725C183.832 47.2774 186.921 47.9057 192.469 49.0938C198.789 50.35 206.235 52.522 206.257 60.727C206.272 66.6687 201.026 73.4017 190.007 73.3613C181.701 73.3837 176.208 70.4963 173.028 65.259L173.015 65.2358L181.62 60.2283Z" fill="white"/>
<path d="M151.069 33.4693C140.141 33.4693 131.282 42.3994 131.282 53.4152C131.282 64.4309 140.141 73.361 151.069 73.361C161.997 73.361 170.856 64.4309 170.856 53.4152C170.856 42.3994 161.997 33.4693 151.069 33.4693ZM151.069 64.0529C145.241 64.0529 140.516 59.2903 140.516 53.4152C140.516 47.5401 145.241 42.7773 151.069 42.7773C156.897 42.7773 161.622 47.5401 161.622 53.4152C161.622 59.2903 156.897 64.0529 151.069 64.0529Z" fill="white"/>
<path d="M126.16 61.425C124.941 62.4042 122.394 63.6141 121.113 63.6141C118.634 63.6141 116.934 62.1853 116.934 58.1135V42.9608H128.712V34.2498H116.934V20L107.12 25.7118V34.2498H99.2687V42.9607H107.12V59.0024C107.12 69.5034 111.976 73.3615 119.98 73.3615C123.523 73.3615 128.249 71.2494 130.723 69.392L126.16 61.425Z" fill="white"/>
</svg>
