<svg xmlns="http://www.w3.org/2000/svg" viewBox="0 0 100 100">
<linearGradient id="SVGID_1_" gradientUnits="userSpaceOnUse" x1="50" y1="100" x2="50" y2="-9.094947e-13">
	<stop  offset="4.073484e-07" style="stop-color:#61829A"/>
	<stop  offset="1" style="stop-color:#6171EB"/>
</linearGradient>
<rect fill="url(#SVGID_1_)" width="100" height="100"/>
<g fill="#f5f5f5">
	<polygon points="50,85 60,85 60,75 50,75 40,75 40,85 	"/>
	<polygon points="70,65 70,55 70,45 60,45 50,45 50,55 60,55 60,65 60,75 70,75 	"/>
	<polygon points="40,55 40,45 40,35 40,25 30,25 30,35 30,45 30,55 30,65 30,75 40,75 40,65 	"/>
	<polygon points="60,25 70,25 70,15 60,15 50,15 40,15 40,25 50,25 	"/>
</g>
</svg>
